<svg width="33" height="32" viewBox="0 0 33 32" fill="none" xmlns="http://www.w3.org/2000/svg">
<path d="M16.4986 12.0333C16.6763 12.0333 16.843 12.0608 16.9986 12.1159C17.1541 12.171 17.2986 12.2657 17.4319 12.3999L23.5652 18.5333C23.8097 18.7777 23.9319 19.0888 23.9319 19.4666C23.9319 19.8444 23.8097 20.1555 23.5652 20.3999C23.3208 20.6444 23.0097 20.7666 22.6319 20.7666C22.2541 20.7666 21.943 20.6444 21.6986 20.3999L16.4986 15.1999L11.2986 20.3999C11.0541 20.6444 10.743 20.7666 10.3652 20.7666C9.98744 20.7666 9.67633 20.6444 9.43189 20.3999C9.18744 20.1555 9.06522 19.8444 9.06522 19.4666C9.06522 19.0888 9.18744 18.7777 9.43189 18.5333L15.5652 12.3999C15.6986 12.2666 15.843 12.1719 15.9986 12.1159C16.1541 12.0599 16.3208 12.0324 16.4986 12.0333Z" fill="#0E6D0A"/>
</svg>
