<svg width="33" height="32" viewBox="0 0 33 32" fill="none" xmlns="http://www.w3.org/2000/svg">
<path d="M16.4988 19.9667C16.321 19.9667 16.1543 19.9392 15.9988 19.8841C15.8432 19.829 15.6988 19.7343 15.5654 19.6001L9.4321 13.4667C9.18765 13.2223 9.06543 12.9112 9.06543 12.5334C9.06543 12.1556 9.18765 11.8445 9.4321 11.6001C9.67654 11.3556 9.98765 11.2334 10.3654 11.2334C10.7432 11.2334 11.0543 11.3556 11.2988 11.6001L16.4988 16.8001L21.6988 11.6001C21.9432 11.3556 22.2543 11.2334 22.6321 11.2334C23.0099 11.2334 23.321 11.3556 23.5654 11.6001C23.8099 11.8445 23.9321 12.1556 23.9321 12.5334C23.9321 12.9112 23.8099 13.2223 23.5654 13.4667L17.4321 19.6001C17.2988 19.7334 17.1543 19.8281 16.9988 19.8841C16.8432 19.9401 16.6765 19.9676 16.4988 19.9667Z" fill="#0E6D0A"/>
</svg>
