<svg width="33" height="32" viewBox="0 0 33 32" fill="none" xmlns="http://www.w3.org/2000/svg">
<path d="M16.4985 14.1333L23.0318 7.59994C23.2762 7.35549 23.5874 7.23327 23.9651 7.23327C24.3429 7.23327 24.654 7.35549 24.8985 7.59994C25.1429 7.84438 25.2651 8.15549 25.2651 8.53327C25.2651 8.91105 25.1429 9.22216 24.8985 9.4666L18.3651 15.9999L24.8985 22.5333C25.1429 22.7777 25.2651 23.0888 25.2651 23.4666C25.2651 23.8444 25.1429 24.1555 24.8985 24.3999C24.654 24.6444 24.3429 24.7666 23.9651 24.7666C23.5874 24.7666 23.2762 24.6444 23.0318 24.3999L16.4985 17.8666L9.96514 24.3999C9.72069 24.6444 9.40958 24.7666 9.0318 24.7666C8.65402 24.7666 8.34291 24.6444 8.09847 24.3999C7.85403 24.1555 7.7318 23.8444 7.7318 23.4666C7.7318 23.0888 7.85403 22.7777 8.09847 22.5333L14.6318 15.9999L8.09847 9.4666C7.85403 9.22216 7.7318 8.91105 7.7318 8.53327C7.7318 8.15549 7.85403 7.84438 8.09847 7.59994C8.34291 7.35549 8.65402 7.23327 9.0318 7.23327C9.40958 7.23327 9.72069 7.35549 9.96514 7.59994L16.4985 14.1333Z" fill="#0E6D0A"/>
</svg>
