<svg width="33" height="33" viewBox="0 0 33 33" fill="none" xmlns="http://www.w3.org/2000/svg">
<path d="M16.9897 18.1596L10.4564 24.693C10.2119 24.9374 9.9008 25.0596 9.52302 25.0596C9.14524 25.0596 8.83413 24.9374 8.58969 24.693C8.34524 24.4485 8.22302 24.1374 8.22302 23.7596C8.22302 23.3819 8.34524 23.0708 8.58969 22.8263L15.123 16.293L8.58969 9.75964C8.34524 9.51519 8.22302 9.20408 8.22302 8.82631C8.22302 8.44853 8.34524 8.13742 8.58969 7.89297C8.83413 7.64853 9.14524 7.52631 9.52302 7.52631C9.9008 7.52631 10.2119 7.64853 10.4564 7.89297L16.9897 14.4263L23.523 7.89297C23.7675 7.64853 24.0786 7.52631 24.4564 7.52631C24.8341 7.52631 25.1452 7.64853 25.3897 7.89297C25.6341 8.13742 25.7564 8.44853 25.7564 8.82631C25.7564 9.20408 25.6341 9.51519 25.3897 9.75964L18.8564 16.293L25.3897 22.8263C25.6341 23.0708 25.7564 23.3819 25.7564 23.7596C25.7564 24.1374 25.6341 24.4485 25.3897 24.693C25.1452 24.9374 24.8341 25.0596 24.4564 25.0596C24.0786 25.0596 23.7675 24.9374 23.523 24.693L16.9897 18.1596Z" fill="white"/>
</svg>
