<svg width="32" height="32" viewBox="0 0 32 32" fill="none" xmlns="http://www.w3.org/2000/svg">
<rect x="0.5" y="0.5" width="31" height="31" rx="7.5" fill="#E8B7B7"/>
<rect x="0.5" y="0.5" width="31" height="31" rx="7.5" stroke="#CA2525"/>
<path d="M12.6667 22C12.3 22 11.986 21.8693 11.7247 21.608C11.4634 21.3467 11.3329 21.0329 11.3334 20.6667V12C11.1445 12 10.986 11.936 10.858 11.808C10.73 11.68 10.6662 11.5218 10.6667 11.3333C10.6667 11.1444 10.7307 10.986 10.8587 10.858C10.9867 10.73 11.1449 10.6662 11.3334 10.6667H14C14 10.4778 14.064 10.3193 14.192 10.1913C14.32 10.0633 14.4782 9.99956 14.6667 10H17.3334C17.5222 10 17.6807 10.064 17.8087 10.192C17.9367 10.32 18.0005 10.4782 18 10.6667H20.6667C20.8556 10.6667 21.014 10.7307 21.142 10.8587C21.27 10.9867 21.3338 11.1449 21.3334 11.3333C21.3334 11.5222 21.2694 11.6807 21.1414 11.8087C21.0134 11.9367 20.8551 12.0004 20.6667 12V20.6667C20.6667 21.0333 20.536 21.3473 20.2747 21.6087C20.0134 21.87 19.6996 22.0004 19.3334 22H12.6667ZM19.3334 12H12.6667V20.6667H19.3334V12ZM14 19.3333H15.3334V13.3333H14V19.3333ZM16.6667 19.3333H18V13.3333H16.6667V19.3333Z" fill="#CA2525"/>
</svg>
