<svg width="33" height="32" viewBox="0 0 33 32" fill="none" xmlns="http://www.w3.org/2000/svg">
<rect x="0.998535" y="0.5" width="31" height="31" rx="7.5" fill="#DBF7DD"/>
<path d="M16.4984 18.3837C16.4095 18.3837 16.3262 18.3699 16.2484 18.3423C16.1706 18.3148 16.0984 18.2674 16.0317 18.2003L13.6317 15.8003C13.4984 15.667 13.4344 15.5114 13.4397 15.3337C13.445 15.1559 13.509 15.0003 13.6317 14.867C13.765 14.7337 13.9235 14.6643 14.107 14.659C14.2906 14.6537 14.4488 14.7174 14.5817 14.8503L15.8317 16.1003V11.3337C15.8317 11.1448 15.8957 10.9863 16.0237 10.8583C16.1517 10.7303 16.3099 10.6666 16.4984 10.667C16.6873 10.667 16.8457 10.731 16.9737 10.859C17.1017 10.987 17.1655 11.1452 17.165 11.3337V16.1003L18.415 14.8503C18.5484 14.717 18.7068 14.653 18.8904 14.6583C19.0739 14.6637 19.2322 14.7332 19.365 14.867C19.4873 15.0003 19.5513 15.1559 19.557 15.3337C19.5628 15.5114 19.4988 15.667 19.365 15.8003L16.965 18.2003C16.8984 18.267 16.8262 18.3143 16.7484 18.3423C16.6706 18.3703 16.5873 18.3841 16.4984 18.3837ZM12.4984 21.3337C12.1317 21.3337 11.8177 21.203 11.5564 20.9417C11.295 20.6803 11.1646 20.3666 11.165 20.0003V18.667C11.165 18.4781 11.229 18.3197 11.357 18.1917C11.485 18.0637 11.6433 17.9999 11.8317 18.0003C12.0206 18.0003 12.179 18.0643 12.307 18.1923C12.435 18.3203 12.4988 18.4786 12.4984 18.667V20.0003H20.4984V18.667C20.4984 18.4781 20.5624 18.3197 20.6904 18.1917C20.8184 18.0637 20.9766 17.9999 21.165 18.0003C21.3539 18.0003 21.5124 18.0643 21.6404 18.1923C21.7684 18.3203 21.8322 18.4786 21.8317 18.667V20.0003C21.8317 20.367 21.701 20.681 21.4397 20.9423C21.1784 21.2037 20.8646 21.3341 20.4984 21.3337H12.4984Z" fill="#47A102"/>
<rect x="0.998535" y="0.5" width="31" height="31" rx="7.5" stroke="#47A102"/>
</svg>
