<svg width="32" height="32" viewBox="0 0 32 32" fill="none" xmlns="http://www.w3.org/2000/svg">
<rect x="0.5" y="0.5" width="31" height="31" rx="7.5" fill="#DBF7DD"/>
<rect x="0.5" y="0.5" width="31" height="31" rx="7.5" stroke="#47A102"/>
<path d="M11.3333 20.6667H12.2833L18.8 14.15L17.85 13.2L11.3333 19.7167V20.6667ZM10.6667 22C10.4778 22 10.3193 21.936 10.1913 21.808C10.0633 21.68 9.99956 21.5218 10 21.3333V19.7167C10 19.5389 10.0333 19.3693 10.1 19.208C10.1667 19.0467 10.2611 18.9051 10.3833 18.7833L18.8 10.3833C18.9333 10.2611 19.0807 10.1667 19.242 10.1C19.4033 10.0333 19.5727 10 19.75 10C19.9278 10 20.1 10.0333 20.2667 10.1C20.4333 10.1667 20.5778 10.2667 20.7 10.4L21.6167 11.3333C21.75 11.4556 21.8471 11.6 21.908 11.7667C21.9689 11.9333 21.9996 12.1 22 12.2667C22 12.4444 21.9693 12.614 21.908 12.7753C21.8467 12.9367 21.7496 13.0838 21.6167 13.2167L13.2167 21.6167C13.0944 21.7389 12.9527 21.8333 12.7913 21.9C12.63 21.9667 12.4607 22 12.2833 22H10.6667ZM18.3167 13.6833L17.85 13.2L18.8 14.15L18.3167 13.6833Z" fill="#47A102"/>
</svg>
