<svg width="24" height="24" viewBox="0 0 24 24" fill="none" xmlns="http://www.w3.org/2000/svg">
<path d="M10.95 15.45L14.425 11.975C14.625 11.775 14.8667 11.675 15.15 11.675C15.4333 11.675 15.675 11.775 15.875 11.975C16.075 12.175 16.175 12.4167 16.175 12.7C16.175 12.9833 16.075 13.225 15.875 13.425L11.65 17.65C11.45 17.85 11.2167 17.95 10.95 17.95C10.6833 17.95 10.45 17.85 10.25 17.65L8.125 15.525C7.925 15.325 7.825 15.0833 7.825 14.8C7.825 14.5167 7.925 14.275 8.125 14.075C8.325 13.875 8.56667 13.775 8.85 13.775C9.13334 13.775 9.375 13.875 9.575 14.075L10.95 15.45ZM5 22C4.45 22 3.979 21.804 3.587 21.412C3.195 21.02 2.99934 20.5493 3 20V6C3 5.45 3.196 4.979 3.588 4.587C3.98 4.195 4.45067 3.99934 5 4H6V3C6 2.71667 6.096 2.479 6.288 2.287C6.48 2.095 6.71734 1.99934 7 2C7.28334 2 7.521 2.096 7.713 2.288C7.905 2.48 8.00067 2.71734 8 3V4H16V3C16 2.71667 16.096 2.479 16.288 2.287C16.48 2.095 16.7173 1.99934 17 2C17.2833 2 17.521 2.096 17.713 2.288C17.905 2.48 18.0007 2.71734 18 3V4H19C19.55 4 20.021 4.196 20.413 4.588C20.805 4.98 21.0007 5.45067 21 6V20C21 20.55 20.804 21.021 20.412 21.413C20.02 21.805 19.5493 22.0007 19 22H5ZM5 20H19V10H5V20ZM5 8H19V6H5V8Z" fill="white"/>
</svg>
