<svg width="33" height="32" viewBox="0 0 33 32" fill="none" xmlns="http://www.w3.org/2000/svg">
<rect x="0.998535" y="0.5" width="31" height="31" rx="7.5" fill="#DBF7DD"/>
<path d="M16.4986 14C17.029 14 17.5378 14.2107 17.9128 14.5858C18.2879 14.9609 18.4986 15.4696 18.4986 16C18.4986 16.5304 18.2879 17.0391 17.9128 17.4142C17.5378 17.7893 17.029 18 16.4986 18C15.9682 18 15.4595 17.7893 15.0844 17.4142C14.7093 17.0391 14.4986 16.5304 14.4986 16C14.4986 15.4696 14.7093 14.9609 15.0844 14.5858C15.4595 14.2107 15.9682 14 16.4986 14ZM16.4986 11C19.8319 11 22.6786 13.0733 23.8319 16C22.6786 18.9267 19.8319 21 16.4986 21C13.1653 21 10.3186 18.9267 9.16528 16C10.3186 13.0733 13.1653 11 16.4986 11ZM10.6186 16C11.1575 17.1002 11.9942 18.0272 13.0336 18.6755C14.0731 19.3238 15.2735 19.6675 16.4986 19.6675C17.7237 19.6675 18.9242 19.3238 19.9636 18.6755C21.0031 18.0272 21.8398 17.1002 22.3786 16C21.8398 14.8998 21.0031 13.9728 19.9636 13.3245C18.9242 12.6762 17.7237 12.3325 16.4986 12.3325C15.2735 12.3325 14.0731 12.6762 13.0336 13.3245C11.9942 13.9728 11.1575 14.8998 10.6186 16Z" fill="#47A102"/>
<rect x="0.998535" y="0.5" width="31" height="31" rx="7.5" stroke="#47A102"/>
</svg>
