<svg width="33" height="32" viewBox="0 0 33 32" fill="none" xmlns="http://www.w3.org/2000/svg">
<path d="M8.49846 29.333C7.76512 29.333 7.13712 29.0717 6.61446 28.549C6.09179 28.0263 5.8309 27.3988 5.83179 26.6663V13.333C5.83179 12.5997 6.09312 11.9717 6.61579 11.449C7.13846 10.9263 7.76601 10.6655 8.49846 10.6663H9.83179V7.99967C9.83179 6.15523 10.482 4.58279 11.7825 3.28234C13.0829 1.9819 14.6549 1.33212 16.4985 1.33301C18.3429 1.33301 19.9153 1.98323 21.2158 3.28368C22.5162 4.58412 23.166 6.15612 23.1651 7.99967V10.6663H24.4985C25.2318 10.6663 25.8598 10.9277 26.3825 11.4503C26.9051 11.973 27.166 12.6006 27.1651 13.333V26.6663C27.1651 27.3997 26.9038 28.0277 26.3811 28.5503C25.8585 29.073 25.2309 29.3339 24.4985 29.333H8.49846ZM8.49846 26.6663H24.4985V13.333H8.49846V26.6663ZM16.4985 22.6663C17.2318 22.6663 17.8598 22.405 18.3825 21.8823C18.9051 21.3597 19.166 20.7321 19.1651 19.9997C19.1651 19.2663 18.9038 18.6383 18.3811 18.1157C17.8585 17.593 17.2309 17.3321 16.4985 17.333C15.7651 17.333 15.1371 17.5943 14.6145 18.117C14.0918 18.6397 13.8309 19.2672 13.8318 19.9997C13.8318 20.733 14.0931 21.361 14.6158 21.8837C15.1385 22.4063 15.766 22.6672 16.4985 22.6663ZM12.4985 10.6663H20.4985V7.99967C20.4985 6.88856 20.1096 5.94412 19.3318 5.16634C18.554 4.38856 17.6096 3.99968 16.4985 3.99968C15.3873 3.99968 14.4429 4.38856 13.6651 5.16634C12.8873 5.94412 12.4985 6.88856 12.4985 7.99967V10.6663Z" fill="#CA2525"/>
</svg>
