<svg width="33" height="32" viewBox="0 0 33 32" fill="none" xmlns="http://www.w3.org/2000/svg">
<rect x="0.998535" y="0.5" width="31" height="31" rx="7.5" fill="#E8B7B7"/>
<path d="M11.8319 22C11.4652 22 11.1512 21.8693 10.8899 21.608C10.6285 21.3467 10.4981 21.0329 10.4985 20.6667V11.3333C10.4985 10.9667 10.6292 10.6527 10.8905 10.3913C11.1519 10.13 11.4656 9.99956 11.8319 10H15.8319C16.0208 10 16.1792 10.064 16.3072 10.192C16.4352 10.32 16.499 10.4782 16.4985 10.6667C16.4985 10.8556 16.4345 11.014 16.3065 11.142C16.1785 11.27 16.0203 11.3338 15.8319 11.3333H11.8319V20.6667H15.8319C16.0208 20.6667 16.1792 20.7307 16.3072 20.8587C16.4352 20.9867 16.499 21.1449 16.4985 21.3333C16.4985 21.5222 16.4345 21.6807 16.3065 21.8087C16.1785 21.9367 16.0203 22.0004 15.8319 22H11.8319ZM19.9485 16.6667H15.1652C14.9763 16.6667 14.8179 16.6027 14.6899 16.4747C14.5619 16.3467 14.4981 16.1884 14.4985 16C14.4985 15.8111 14.5625 15.6527 14.6905 15.5247C14.8185 15.3967 14.9768 15.3329 15.1652 15.3333H19.9485L18.6985 14.0833C18.5763 13.9611 18.5152 13.8111 18.5152 13.6333C18.5152 13.4556 18.5763 13.3 18.6985 13.1667C18.8208 13.0333 18.9763 12.9638 19.1652 12.958C19.3541 12.9522 19.5152 13.0162 19.6485 13.15L22.0319 15.5333C22.1652 15.6667 22.2319 15.8222 22.2319 16C22.2319 16.1778 22.1652 16.3333 22.0319 16.4667L19.6485 18.85C19.5152 18.9833 19.3568 19.0473 19.1732 19.042C18.9896 19.0367 18.8314 18.9671 18.6985 18.8333C18.5763 18.7 18.5179 18.5416 18.5232 18.358C18.5285 18.1744 18.5925 18.0218 18.7152 17.9L19.9485 16.6667Z" fill="#CA2525"/>
<rect x="0.998535" y="0.5" width="31" height="31" rx="7.5" stroke="#CA2525"/>
</svg>
